<svg width="24" height="24" viewBox="0 0 24 24" fill="none" xmlns="http://www.w3.org/2000/svg">
<path d="M18.9675 3V13.3226L19.4837 12.8065V3.51613L18.9675 3Z" fill="#0B0B0B"/>
<path d="M14.8386 7.64516H15.8709L16.9031 7.12903V6.6129L14.8386 7.64516Z" fill="#0B0C0C"/>
<path d="M18.9677 3H17.4193C17.4193 3 17.1597 3.66169 16.9031 4.03226C16.3295 4.86087 14.8386 5.58065 14.8386 5.58065V7.64516L16.9031 6.6129V12.8065L18.9677 13.3226V3Z" fill="#363636"/>
<path fill-rule="evenodd" clip-rule="evenodd" d="M5 18.5L9.67739 4.54839L12.1426 5.04144C12.2139 5.05568 12.2718 5.10742 12.2939 5.1766L16.3036 17.7068C16.3449 17.8358 16.2486 17.9677 16.1131 17.9677H13.8064L12.7742 15.3871H9.16126L8.17434 18.3479C8.14724 18.4292 8.07134 18.4842 7.98563 18.4846L5 18.5ZM11.036 9.24663L9.76514 13.0593C9.72197 13.1888 9.81836 13.3226 9.95487 13.3226H12.4967C12.6332 13.3226 12.7296 13.1888 12.6864 13.0593L11.4155 9.24663C11.3547 9.06429 11.0968 9.06429 11.036 9.24663Z" fill="#FF3835"/>
<path d="M8.64516 5.06452L4.09188 18.2184C4.04691 18.3484 4.14339 18.4839 4.28087 18.4839H5L9.67742 4.54839L8.64516 5.06452Z" fill="#990707"/>
<path d="M11.7419 15.3871L12.7239 17.842C12.7543 17.918 12.8278 17.9677 12.9096 17.9677H13.8065L12.7742 15.3871H11.7419Z" fill="#990707"/>
<path d="M10.7097 10.2258L11.742 13.3226H12.4967C12.6333 13.3226 12.7297 13.1888 12.6865 13.0593L11.4156 9.24663C11.3548 9.06429 11.0969 9.06429 11.0361 9.24663L10.7097 10.2258Z" fill="#990707"/>
</svg>
